<?xml version="1.0" encoding="UTF-8"?>
<svg xmlns="http://www.w3.org/2000/svg" xmlns:xlink="http://www.w3.org/1999/xlink" width="252pt" height="55pt" viewBox="0 0 252 55" version="1.1">
<g id="surface1">
<path style=" stroke:none;fill-rule:nonzero;fill:rgb(0%,37.647059%,61.176471%);fill-opacity:1;" d="M 1.230469 0 L 45.914062 0 L 45.914062 44.699219 L 1.230469 44.699219 Z M 1.230469 0 "/>
<path style=" stroke:none;fill-rule:nonzero;fill:rgb(100%,100%,100%);fill-opacity:1;" d="M 5.507812 17.507812 L 2.570312 17.507812 L 2.570312 16.972656 L 9.011719 16.972656 L 16.015625 34.730469 L 22.890625 16.972656 L 29.230469 16.972656 L 29.230469 17.507812 L 26.292969 17.507812 L 26.292969 39.9375 L 29.230469 39.9375 L 29.230469 40.472656 L 19.757812 40.472656 L 19.757812 39.9375 L 22.890625 39.9375 L 22.890625 18.773438 L 22.824219 18.773438 L 14.683594 39.9375 L 14.382812 39.9375 L 6.109375 19.175781 L 6.039062 19.175781 L 6.039062 37.164062 C 6.039062 39.371094 6.34375 39.9375 8.109375 39.9375 L 9.449219 39.9375 L 9.449219 40.472656 L 2.570312 40.472656 L 2.570312 39.9375 L 3.441406 39.9375 C 5.210938 39.9375 5.507812 39.371094 5.507812 37.164062 Z M 5.507812 17.507812 "/>
<path style=" stroke:none;fill-rule:nonzero;fill:rgb(100%,100%,100%);fill-opacity:1;" d="M 30.144531 16.960938 C 31.246094 16.261719 31.714844 16.027344 32.914062 15.5625 C 34.578125 14.859375 36.015625 14.558594 37.585938 14.558594 C 40.453125 14.558594 42.421875 15.628906 43.089844 17.527344 C 43.324219 18.230469 43.386719 18.765625 43.386719 20.601562 L 43.292969 26.34375 L 43.292969 26.640625 C 43.292969 28.476562 43.589844 29.175781 44.890625 30.144531 L 42.523438 32.886719 C 41.488281 32.449219 40.554688 31.683594 40.117188 30.816406 C 39.484375 31.414062 39.417969 31.480469 39.085938 31.714844 C 38.25 32.3125 37.050781 32.648438 35.648438 32.648438 C 31.847656 32.648438 29.777344 30.714844 29.777344 27.308594 C 29.777344 23.304688 32.546875 21.4375 37.984375 21.4375 C 38.316406 21.4375 38.515625 21.4375 38.984375 21.46875 L 38.984375 20.769531 C 38.984375 18.867188 38.617188 18.234375 36.984375 18.234375 C 35.546875 18.234375 33.878906 18.933594 32.046875 20.167969 Z M 38.917969 24.539062 L 38.71875 24.539062 C 35.613281 24.539062 34.546875 25.109375 34.546875 27.144531 C 34.546875 28.476562 35.382812 29.378906 36.515625 29.378906 C 37.351562 29.378906 38.183594 28.941406 38.851562 28.207031 Z M 38.917969 24.539062 "/>
<path style=" stroke:none;fill-rule:nonzero;fill:rgb(0%,0%,0%);fill-opacity:1;" d="M 53.648438 17.375 L 50.671875 17.375 L 50.671875 16.828125 L 57.195312 16.828125 L 64.296875 34.820312 L 71.257812 16.828125 L 77.679688 16.828125 L 77.679688 17.375 L 74.707031 17.375 L 74.707031 40.097656 L 77.679688 40.097656 L 77.679688 40.636719 L 68.082031 40.636719 L 68.082031 40.097656 L 71.257812 40.097656 L 71.257812 18.660156 L 71.191406 18.660156 L 62.941406 40.097656 L 62.640625 40.097656 L 54.253906 19.0625 L 54.1875 19.0625 L 54.1875 37.289062 C 54.1875 39.523438 54.492188 40.097656 56.28125 40.097656 L 57.636719 40.097656 L 57.636719 40.636719 L 50.671875 40.636719 L 50.671875 40.097656 L 51.550781 40.097656 C 53.339844 40.097656 53.648438 39.523438 53.648438 37.289062 Z M 53.648438 17.375 "/>
<path style=" stroke:none;fill-rule:nonzero;fill:rgb(0%,0%,0%);fill-opacity:1;" d="M 80.457031 35.394531 C 80.425781 37.796875 80.765625 40.503906 83.941406 40.503906 C 86.78125 40.503906 88.878906 38.613281 89.351562 35.835938 L 89.890625 35.835938 C 89.351562 38.949219 87.050781 41.042969 83.941406 41.042969 C 79.988281 41.042969 77.214844 38 77.214844 33.539062 C 77.214844 30.257812 79.855469 26.03125 83.539062 26.03125 C 87.527344 26.03125 89.589844 30.492188 89.589844 31.917969 C 89.589844 32.117188 89.488281 32.21875 89.285156 32.21875 L 80.457031 32.21875 Z M 86.34375 30.730469 C 86.34375 28.5625 85.769531 26.570312 83.539062 26.570312 C 81.171875 26.570312 80.457031 28.5625 80.457031 30.730469 L 80.457031 31.675781 L 86.105469 31.675781 C 86.277344 31.675781 86.34375 31.574219 86.34375 31.4375 Z M 86.34375 30.730469 "/>
<path style=" stroke:none;fill-rule:nonzero;fill:rgb(0%,0%,0%);fill-opacity:1;" d="M 92.523438 27.3125 L 89.683594 27.3125 L 89.683594 26.773438 L 92.523438 26.773438 C 93.605469 26.773438 94.6875 26.703125 95.363281 26.03125 L 95.363281 30.019531 L 95.433594 30.019531 C 95.835938 28.496094 97.019531 26.03125 99.792969 26.03125 C 101.042969 26.03125 102.023438 26.839844 102.023438 28.023438 C 102.023438 28.902344 101.480469 29.609375 100.46875 29.609375 C 99.351562 29.609375 98.980469 29.039062 98.980469 28.125 C 98.980469 27.382812 99.351562 26.875 99.726562 26.667969 C 99.589844 26.570312 99.421875 26.570312 99.25 26.570312 C 97.867188 26.570312 95.363281 28.765625 95.363281 33.164062 L 95.363281 40.09375 L 98.441406 40.09375 L 98.441406 40.636719 L 89.683594 40.636719 L 89.683594 40.09375 L 92.523438 40.09375 Z M 92.523438 27.3125 "/>
<path style=" stroke:none;fill-rule:nonzero;fill:rgb(0%,0%,0%);fill-opacity:1;" d="M 114.191406 35.867188 C 114.089844 38.4375 111.855469 41.039062 108.511719 41.039062 C 104.148438 41.039062 101.34375 37.933594 101.34375 34.109375 C 101.34375 29.679688 104.722656 26.03125 108.714844 26.03125 C 111.078125 26.03125 113.578125 27.074219 113.578125 29.171875 C 113.578125 30.1875 112.800781 30.867188 111.960938 30.867188 C 110.910156 30.867188 110.335938 30.121094 110.335938 29.410156 C 110.335938 28.058594 111.179688 28.125 111.179688 27.617188 C 111.179688 26.875 109.628906 26.570312 108.648438 26.570312 C 105.367188 26.570312 104.589844 28.703125 104.589844 31.914062 L 104.589844 34.855469 C 104.589844 37.796875 104.722656 40.503906 108.511719 40.503906 C 111.925781 40.503906 113.410156 37.9375 113.648438 35.867188 Z M 114.191406 35.867188 "/>
<path style=" stroke:none;fill-rule:nonzero;fill:rgb(0%,0%,0%);fill-opacity:1;" d="M 127.285156 38.8125 C 127.285156 39.453125 127.390625 40.300781 128.300781 40.300781 C 129.078125 40.300781 129.554688 39.65625 130.058594 38.949219 L 130.429688 39.21875 C 129.789062 40.332031 128.910156 41.042969 127.457031 41.042969 C 125.867188 41.042969 124.71875 40.132812 124.476562 38.949219 L 124.414062 38.949219 C 123.261719 40.46875 121.742188 41.042969 119.511719 41.042969 C 116.875 41.042969 115.289062 39.726562 115.289062 37.425781 C 115.289062 33.636719 120.320312 32.691406 123.804688 32.691406 L 124.445312 32.691406 L 124.445312 28.53125 C 124.445312 26.941406 122.960938 26.570312 121.675781 26.570312 C 120.695312 26.570312 118.394531 26.941406 118.394531 28.160156 C 118.394531 28.96875 119.511719 28.597656 119.511719 30.121094 C 119.511719 30.933594 118.835938 31.542969 117.957031 31.542969 C 117.011719 31.542969 116.472656 30.796875 116.472656 29.648438 C 116.472656 27.917969 118.296875 26.027344 121.675781 26.027344 C 124.246094 26.027344 127.285156 27.347656 127.285156 29.949219 Z M 123.871094 33.234375 C 121.40625 33.234375 118.332031 33.300781 118.332031 36.914062 C 118.332031 38.8125 118.632812 40.234375 120.796875 40.234375 C 123.332031 40.234375 124.449219 38.335938 124.449219 37.65625 L 124.449219 33.230469 L 123.871094 33.230469 Z M 123.871094 33.234375 "/>
<path style=" stroke:none;fill-rule:nonzero;fill:rgb(0%,0%,0%);fill-opacity:1;" d="M 132.632812 27.3125 L 129.960938 27.3125 L 129.960938 26.773438 L 132.632812 26.773438 C 134.257812 26.773438 134.863281 26.773438 135.472656 26.03125 L 135.472656 29.476562 L 135.542969 29.476562 C 136.421875 27.855469 138.109375 26.03125 140.578125 26.03125 C 144.195312 26.03125 145.207031 27.855469 145.207031 29.851562 L 145.207031 40.097656 L 147.382812 40.097656 L 147.382812 40.636719 L 140.191406 40.636719 L 140.191406 40.097656 L 142.367188 40.097656 L 142.367188 29.039062 C 142.367188 27.179688 141.457031 26.570312 140.375 26.570312 C 137.535156 26.570312 136.078125 29.410156 135.472656 30.558594 L 135.472656 40.097656 L 137.546875 40.097656 L 137.546875 40.636719 L 130.457031 40.636719 L 130.457031 40.097656 L 132.632812 40.097656 Z M 132.632812 27.3125 "/>
<path style=" stroke:none;fill-rule:nonzero;fill:rgb(0%,0%,0%);fill-opacity:1;" d="M 148.652344 27.3125 L 145.710938 27.3125 L 145.710938 26.773438 C 149.226562 26.839844 150.511719 25.351562 151.085938 22.039062 L 151.492188 22.039062 L 151.492188 26.773438 L 156.160156 26.773438 L 156.160156 27.3125 L 151.492188 27.3125 L 151.492188 38.675781 C 151.492188 40.0625 152.066406 40.5 153.148438 40.5 C 154.839844 40.5 155.582031 38.949219 155.785156 38.375 L 156.292969 38.472656 C 156.054688 39.285156 155.074219 41.042969 152.574219 41.042969 C 150.210938 41.042969 148.652344 40.265625 148.652344 38.035156 Z M 148.652344 27.3125 "/>
<path style=" stroke:none;fill-rule:nonzero;fill:rgb(0%,0%,0%);fill-opacity:1;" d="M 158.835938 27.3125 L 156.132812 27.3125 L 156.132812 26.773438 L 158.835938 26.773438 C 159.921875 26.773438 161 26.703125 161.675781 26.03125 L 161.675781 40.097656 L 164.382812 40.097656 L 164.382812 40.636719 L 156.625 40.636719 L 156.625 40.097656 L 158.835938 40.097656 Z M 160.257812 20.191406 C 161.203125 20.191406 161.980469 20.96875 161.980469 21.917969 C 161.980469 22.863281 161.203125 23.640625 160.257812 23.640625 C 159.3125 23.640625 158.535156 22.863281 158.535156 21.917969 C 158.535156 20.96875 159.3125 20.191406 160.257812 20.191406 "/>
<path style=" stroke:none;fill-rule:nonzero;fill:rgb(0%,0%,0%);fill-opacity:1;" d="M 166.230469 18.648438 L 163.519531 18.648438 L 163.519531 18.105469 L 166.230469 18.105469 C 167.304688 18.105469 168.390625 18.042969 169.066406 17.261719 L 169.066406 40.097656 L 171.773438 40.097656 L 171.773438 40.636719 L 163.519531 40.636719 L 163.519531 40.097656 L 166.230469 40.097656 Z M 166.230469 18.648438 "/>
<path style=" stroke:none;fill-rule:nonzero;fill:rgb(0%,0%,0%);fill-opacity:1;" d="M 175.457031 27.433594 C 176.425781 26.820312 176.835938 26.613281 177.886719 26.207031 C 179.351562 25.59375 180.609375 25.324219 181.984375 25.324219 C 184.5 25.324219 186.230469 26.265625 186.8125 27.929688 C 187.023438 28.546875 187.078125 29.015625 187.078125 30.625 L 186.992188 35.664062 L 186.992188 35.925781 C 186.992188 37.535156 187.253906 38.148438 188.394531 39 L 186.316406 41.402344 C 185.40625 41.019531 184.589844 40.347656 184.207031 39.582031 C 183.652344 40.109375 183.59375 40.167969 183.300781 40.375 C 182.566406 40.902344 181.519531 41.195312 180.289062 41.195312 C 176.949219 41.195312 175.140625 39.496094 175.140625 36.507812 C 175.140625 33 177.566406 31.355469 182.335938 31.355469 C 182.632812 31.355469 182.804688 31.355469 183.214844 31.386719 L 183.214844 30.769531 C 183.214844 29.101562 182.890625 28.546875 181.460938 28.546875 C 180.199219 28.546875 178.738281 29.164062 177.128906 30.246094 Z M 183.15625 34.078125 L 182.980469 34.078125 C 180.257812 34.078125 179.320312 34.578125 179.320312 36.363281 C 179.320312 37.53125 180.054688 38.324219 181.046875 38.324219 C 181.78125 38.324219 182.507812 37.941406 183.09375 37.300781 Z M 183.15625 34.078125 "/>
<path style=" stroke:none;fill-rule:nonzero;fill:rgb(0%,0%,0%);fill-opacity:1;" d="M 189.09375 26.265625 L 192.574219 25.265625 C 192.925781 25.882812 193.132812 26.527344 193.132812 27.144531 C 194.039062 26.496094 194.214844 26.378906 194.863281 26.03125 C 195.648438 25.617188 196.671875 25.382812 197.546875 25.382812 C 199.214844 25.382812 200.683594 26.265625 201.148438 27.550781 C 201.355469 28.109375 201.445312 28.753906 201.445312 29.6875 L 201.445312 40.636719 L 197.578125 40.636719 L 197.578125 30.890625 C 197.578125 29.1875 197.285156 28.695312 196.265625 28.695312 C 195.472656 28.695312 194.449219 29.21875 193.542969 30.039062 L 193.542969 40.636719 L 189.621094 40.636719 L 189.621094 29.773438 C 189.621094 28.488281 189.445312 27.257812 189.09375 26.265625 "/>
<path style=" stroke:none;fill-rule:nonzero;fill:rgb(0%,0%,0%);fill-opacity:1;" d="M 216.253906 19.585938 L 216.253906 35.160156 C 216.253906 38.851562 216.546875 40.050781 216.8125 40.636719 L 213.296875 40.636719 C 213.179688 40.40625 213.121094 40.167969 213.0625 39.757812 C 212.09375 40.605469 210.957031 41.015625 209.609375 41.015625 C 205.804688 41.015625 203.40625 38.0625 203.40625 33.40625 C 203.40625 28.722656 206.007812 25.503906 209.8125 25.503906 C 210.898438 25.503906 211.75 25.761719 212.476562 26.351562 C 212.421875 26.03125 212.359375 25.003906 212.359375 24.121094 L 212.359375 18.96875 Z M 212.421875 29.601562 C 211.6875 28.957031 210.988281 28.636719 210.285156 28.636719 C 208.527344 28.636719 207.765625 30.097656 207.765625 33.433594 C 207.765625 36.65625 208.4375 37.710938 210.488281 37.710938 C 211.21875 37.710938 212.039062 37.214844 212.421875 36.742188 Z M 212.421875 29.601562 "/>
<path style=" stroke:none;fill-rule:nonzero;fill:rgb(0%,0%,0%);fill-opacity:1;" d="M 218.976562 25.910156 L 222.898438 25.296875 L 222.898438 40.636719 L 218.976562 40.636719 Z M 220.996094 19.089844 C 222.3125 19.089844 223.367188 20.171875 223.367188 21.519531 C 223.367188 22.867188 222.285156 23.949219 220.941406 23.949219 C 219.621094 23.949219 218.539062 22.867188 218.539062 21.519531 C 218.539062 20.171875 219.652344 19.089844 220.996094 19.089844 "/>
<path style=" stroke:none;fill-rule:nonzero;fill:rgb(0%,0%,0%);fill-opacity:1;" d="M 224.890625 26.265625 L 228.375 25.265625 C 228.722656 25.882812 228.929688 26.527344 228.929688 27.144531 C 229.835938 26.496094 230.011719 26.378906 230.65625 26.03125 C 231.445312 25.617188 232.472656 25.382812 233.351562 25.382812 C 235.019531 25.382812 236.480469 26.265625 236.945312 27.550781 C 237.152344 28.109375 237.242188 28.753906 237.242188 29.6875 L 237.242188 40.636719 L 233.378906 40.636719 L 233.378906 30.890625 C 233.378906 29.1875 233.085938 28.695312 232.058594 28.695312 C 231.273438 28.695312 230.246094 29.21875 229.339844 30.039062 L 229.339844 40.636719 L 225.421875 40.636719 L 225.421875 29.773438 C 225.421875 28.488281 225.242188 27.257812 224.890625 26.265625 "/>
<path style=" stroke:none;fill-rule:nonzero;fill:rgb(0%,0%,0%);fill-opacity:1;" d="M 238.917969 27.433594 C 239.886719 26.820312 240.292969 26.613281 241.351562 26.207031 C 242.8125 25.59375 244.070312 25.324219 245.445312 25.324219 C 247.964844 25.324219 249.691406 26.265625 250.277344 27.929688 C 250.484375 28.546875 250.539062 29.015625 250.539062 30.625 L 250.449219 35.664062 L 250.449219 35.925781 C 250.449219 37.535156 250.71875 38.148438 251.859375 39 L 249.78125 41.402344 C 248.871094 41.019531 248.050781 40.347656 247.671875 39.582031 C 247.117188 40.109375 247.054688 40.167969 246.761719 40.375 C 246.035156 40.902344 244.980469 41.195312 243.75 41.195312 C 240.414062 41.195312 238.597656 39.496094 238.597656 36.507812 C 238.597656 33 241.03125 31.355469 245.800781 31.355469 C 246.089844 31.355469 246.265625 31.355469 246.675781 31.386719 L 246.675781 30.769531 C 246.675781 29.101562 246.355469 28.546875 244.917969 28.546875 C 243.664062 28.546875 242.199219 29.164062 240.585938 30.246094 Z M 246.617188 34.078125 L 246.441406 34.078125 C 243.71875 34.078125 242.78125 34.578125 242.78125 36.363281 C 242.78125 37.53125 243.515625 38.324219 244.511719 38.324219 C 245.238281 38.324219 245.972656 37.941406 246.558594 37.300781 Z M 246.617188 34.078125 "/>
<path style=" stroke:none;fill-rule:evenodd;fill:rgb(0%,0%,0%);fill-opacity:1;" d="M 2.972656 48.046875 C 1.894531 48.046875 1.179688 48.65625 1.179688 49.5625 C 1.179688 49.859375 1.277344 50.195312 1.445312 50.394531 C 1.605469 50.597656 1.984375 50.808594 2.292969 50.863281 L 2.835938 50.964844 C 3.324219 51.054688 3.550781 51.21875 3.550781 51.535156 C 3.550781 51.832031 3.28125 52.058594 2.933594 52.058594 C 2.414062 52.058594 1.769531 51.761719 1.398438 51.535156 L 0.960938 52.421875 C 1.644531 52.773438 2.265625 52.957031 2.835938 52.957031 C 4.019531 52.957031 4.820312 52.304688 4.820312 51.347656 C 4.820312 51.035156 4.738281 50.773438 4.566406 50.554688 C 4.402344 50.347656 4.210938 50.175781 3.640625 50.035156 L 3.078125 49.890625 C 2.65625 49.78125 2.503906 49.65625 2.503906 49.417969 C 2.503906 49.148438 2.734375 48.964844 3.089844 48.964844 C 3.433594 48.964844 3.765625 49.0625 4.230469 49.300781 L 4.625 48.484375 C 4.203125 48.277344 3.710938 48.046875 2.972656 48.046875 "/>
<path style=" stroke:none;fill-rule:evenodd;fill:rgb(0%,0%,0%);fill-opacity:1;" d="M 10.019531 52.039062 C 9.398438 52.039062 9.046875 51.632812 9.046875 50.921875 L 9.046875 50.882812 L 11.722656 50.882812 L 11.722656 50.605469 C 11.722656 49.632812 11.53125 49.015625 11.105469 48.574219 C 10.808594 48.269531 10.304688 48.089844 9.769531 48.089844 C 9.152344 48.089844 8.691406 48.285156 8.3125 48.710938 C 7.902344 49.164062 7.730469 49.71875 7.730469 50.550781 C 7.730469 52.007812 8.589844 52.949219 9.921875 52.949219 C 10.574219 52.949219 11.132812 52.738281 11.667969 52.304688 L 11.199219 51.582031 C 10.828125 51.890625 10.4375 52.039062 10.019531 52.039062 M 9.0625 49.976562 C 9.0625 49.332031 9.324219 48.976562 9.785156 48.976562 C 10.027344 48.976562 10.203125 49.0625 10.324219 49.246094 C 10.429688 49.417969 10.464844 49.59375 10.464844 49.945312 L 10.464844 49.996094 L 9.0625 49.996094 Z M 9.0625 49.976562 "/>
<path style=" stroke:none;fill-rule:evenodd;fill:rgb(0%,0%,0%);fill-opacity:1;" d="M 18.136719 48.3125 C 17.980469 48.3125 17.902344 48.292969 17.566406 48.210938 C 17.230469 48.121094 16.996094 48.09375 16.734375 48.09375 C 15.546875 48.09375 14.78125 48.710938 14.78125 49.660156 C 14.78125 50.347656 15.101562 50.773438 15.773438 50.949219 C 15.5 51.011719 15.207031 51.148438 15.066406 51.300781 C 14.96875 51.40625 14.921875 51.550781 14.921875 51.726562 C 14.921875 51.871094 14.960938 51.996094 15.011719 52.105469 C 15.074219 52.207031 15.167969 52.285156 15.273438 52.332031 C 15.496094 52.414062 15.84375 52.464844 16.386719 52.476562 C 16.667969 52.476562 16.84375 52.484375 16.90625 52.484375 C 17.238281 52.5 17.410156 52.554688 17.539062 52.625 C 17.664062 52.691406 17.757812 52.855469 17.757812 53.039062 C 17.757812 53.21875 17.640625 53.398438 17.464844 53.507812 C 17.304688 53.617188 17.042969 53.664062 16.695312 53.664062 C 16.136719 53.664062 15.828125 53.460938 15.828125 53.089844 C 15.828125 52.925781 15.847656 52.894531 15.882812 52.789062 L 14.757812 52.789062 C 14.71875 52.882812 14.652344 53.011719 14.652344 53.265625 C 14.652344 53.578125 14.78125 53.851562 15.03125 54.089844 C 15.449219 54.476562 16.128906 54.582031 16.789062 54.582031 C 17.511719 54.582031 18.210938 54.417969 18.617188 53.988281 C 18.871094 53.714844 18.988281 53.414062 18.988281 53.027344 C 18.988281 52.609375 18.863281 52.292969 18.589844 52.039062 C 18.265625 51.742188 17.890625 51.632812 17.1875 51.625 L 16.535156 51.613281 C 16.410156 51.613281 16.335938 51.574219 16.335938 51.511719 C 16.335938 51.378906 16.507812 51.273438 16.816406 51.128906 C 16.90625 51.136719 16.941406 51.136719 16.996094 51.136719 C 17.984375 51.136719 18.707031 50.554688 18.707031 49.761719 C 18.707031 49.453125 18.617188 49.21875 18.433594 49 C 18.589844 49.015625 18.632812 49.027344 18.75 49.027344 C 19.089844 49.027344 19.339844 48.925781 19.601562 48.683594 L 19.097656 47.914062 C 18.8125 48.167969 18.472656 48.3125 18.136719 48.3125 M 17.457031 49.671875 C 17.457031 50.097656 17.195312 50.332031 16.714844 50.332031 C 16.289062 50.332031 16 50.140625 16 49.671875 C 16 49.238281 16.261719 48.980469 16.722656 48.980469 C 17.1875 48.980469 17.457031 49.238281 17.457031 49.671875 "/>
<path style=" stroke:none;fill-rule:evenodd;fill:rgb(0%,0%,0%);fill-opacity:1;" d="M 22.402344 51.253906 C 22.402344 51.726562 22.433594 51.96875 22.503906 52.175781 C 22.65625 52.621094 23.21875 52.929688 23.871094 52.929688 C 24.359375 52.929688 24.796875 52.773438 25.089844 52.484375 C 25.171875 52.675781 25.300781 52.828125 25.453125 52.9375 L 26.3125 52.453125 C 26.132812 52.234375 26.035156 51.914062 26.035156 51.609375 L 26.035156 48.066406 L 24.875 48.3125 L 24.875 51.574219 C 24.785156 51.796875 24.421875 52.015625 24.121094 52.015625 C 23.945312 52.015625 23.761719 51.925781 23.695312 51.796875 C 23.625 51.667969 23.597656 51.449219 23.597656 51.035156 L 23.597656 48.058594 L 22.402344 48.285156 Z M 22.402344 51.253906 "/>
<path style=" stroke:none;fill-rule:evenodd;fill:rgb(0%,0%,0%);fill-opacity:1;" d="M 29.683594 49.714844 L 29.683594 52.8125 L 30.898438 52.8125 L 30.898438 49.535156 C 31.121094 49.269531 31.367188 49.144531 31.640625 49.144531 C 31.777344 49.144531 31.875 49.171875 31.992188 49.238281 L 32.328125 48.167969 C 32.140625 48.089844 32.054688 48.066406 31.875 48.066406 C 31.742188 48.066406 31.574219 48.097656 31.476562 48.140625 C 31.253906 48.25 30.960938 48.496094 30.792969 48.726562 C 30.769531 48.464844 30.707031 48.257812 30.601562 48.066406 L 29.515625 48.359375 C 29.613281 48.621094 29.683594 49.089844 29.683594 49.714844 "/>
<path style=" stroke:none;fill-rule:evenodd;fill:rgb(0%,0%,0%);fill-opacity:1;" d="M 34.707031 50.507812 C 34.707031 51.96875 35.527344 52.910156 36.789062 52.910156 C 37.503906 52.910156 37.964844 52.667969 38.316406 52.265625 C 38.714844 51.816406 38.898438 51.273438 38.898438 50.476562 C 38.898438 49.726562 38.734375 49.21875 38.363281 48.785156 C 37.964844 48.3125 37.449219 48.089844 36.789062 48.089844 C 35.539062 48.089844 34.707031 49.054688 34.707031 50.507812 M 37.332031 49.226562 C 37.496094 49.4375 37.578125 49.839844 37.578125 50.46875 C 37.578125 51.5625 37.351562 52.03125 36.824219 52.03125 C 36.589844 52.03125 36.320312 51.910156 36.210938 51.652344 C 36.109375 51.417969 36.054688 51.023438 36.054688 50.484375 C 36.054688 50.023438 36.101562 49.695312 36.179688 49.453125 C 36.285156 49.164062 36.515625 48.984375 36.808594 48.984375 C 37.023438 48.984375 37.214844 49.070312 37.332031 49.226562 "/>
<path style=" stroke:none;fill-rule:evenodd;fill:rgb(0%,0%,0%);fill-opacity:1;" d="M 43.652344 48.046875 C 42.574219 48.046875 41.855469 48.65625 41.855469 49.5625 C 41.855469 49.859375 41.957031 50.195312 42.121094 50.394531 C 42.285156 50.597656 42.664062 50.808594 42.972656 50.863281 L 43.511719 50.964844 C 44.003906 51.054688 44.230469 51.21875 44.230469 51.535156 C 44.230469 51.832031 43.960938 52.058594 43.617188 52.058594 C 43.089844 52.058594 42.449219 51.761719 42.078125 51.535156 L 41.644531 52.421875 C 42.320312 52.773438 42.945312 52.957031 43.511719 52.957031 C 44.703125 52.957031 45.496094 52.304688 45.496094 51.347656 C 45.496094 51.035156 45.414062 50.773438 45.246094 50.554688 C 45.082031 50.347656 44.890625 50.175781 44.320312 50.03125 L 43.761719 49.886719 C 43.335938 49.777344 43.179688 49.652344 43.179688 49.417969 C 43.179688 49.148438 43.417969 48.964844 43.769531 48.964844 C 44.113281 48.964844 44.449219 49.0625 44.910156 49.296875 L 45.304688 48.484375 C 44.886719 48.277344 44.390625 48.046875 43.652344 48.046875 "/>
</g>
</svg>
